<?xml version="1.0" encoding="utf-8"?>
<!-- Generator: Adobe Illustrator 24.1.3, SVG Export Plug-In . SVG Version: 6.00 Build 0)  -->
<svg version="1.1" id="Layer_1" xmlns="http://www.w3.org/2000/svg" xmlns:xlink="http://www.w3.org/1999/xlink" x="0px" y="0px"
	 viewBox="0 0 800 233.3" style="enable-background:new 0 0 800 233.3;" xml:space="preserve">
<style type="text/css">
	.st0{fill:#0FC1B7;}
	.st1{fill:#FFFFFF;}
</style>
<g>
	<g>
		<path class="st0" d="M212.2,145.1v86.6h-33.9v-81.3c0-8.3-2-14.8-6-19.7c-4-4.9-9.3-7.3-16-7.3c-6.8,0-12.3,2.4-16.4,7.2
			c-4.2,4.8-6.3,11.1-6.3,18.9v82.1H99.6v-81.3c0-8.3-2-14.8-6-19.7c-4-4.9-9.3-7.3-16-7.3c-6.9,0-12.4,2.4-16.5,7.3
			c-4.2,4.9-6.2,11.4-6.2,19.7v81.3H21V123.7H0V92.1h52.1v12.4C60.9,94.2,72.6,89,87.2,89c16.7,0,29,6.7,36.8,20
			c4.7-6.2,10.7-11.1,17.9-14.7c7.2-3.5,15-5.3,23.5-5.3c14.6,0,26.1,5.1,34.4,15.3C208,114.5,212.2,128.1,212.2,145.1z"/>
	</g>
	<rect x="470.5" y="10.3" class="st0" width="34.5" height="34.5"/>
	<rect x="744.5" y="10.3" class="st0" width="34.5" height="34.5"/>
	<rect x="407.1" y="10.3" class="st0" width="34.5" height="34.5"/>
	<polygon class="st1" points="386.4,231.7 343.6,231.7 297.7,160.9 275.3,185.1 275.3,231.7 239.2,231.7 239.2,31.6 218.2,31.6 
		218.2,0 275.3,0 275.3,138.5 275.9,138.8 334.6,73.7 378.1,73.7 321.6,135 	"/>
	<path class="st1" d="M456.9,72.1c43.6,0,65.4,17.4,65.4,52.3v107.2h-36.1v-14c-0.2-0.2-0.4-0.3-0.6-0.3c-7.9,10.6-21.6,16-41.2,16
		c-17,0-30.4-4.1-40.1-12.4c-9.7-8.3-14.5-20-14.5-35.1c0-13.4,4.7-24.7,14.2-33.8c9.5-9.1,22.6-13.7,39.4-13.7h42.8v-11.5
		c0-15.1-10.4-22.7-31.3-22.7c-16,0-28.5,4.4-37.7,13.1l-19.2-24.3C412,79.1,431.6,72.1,456.9,72.1z M424,183.2
		c0,5.5,2.2,10.2,6.7,13.9c4.5,3.7,11.6,5.6,21.4,5.6c10.9,0,19.3-2.2,25.2-6.7c6-4.5,8.9-12.2,8.9-23.3v-7h-36.7
		C432.5,165.7,424,171.5,424,183.2z"/>
	<path class="st1" d="M621.2,155.4h-1.6l-19.4,76.3h-37.1l-25.8-158h36L589,176.8h1.3l17.2-65.4h30.3l17.2,64.2l1.6,0l15-101.8h31.8
		l-25.1,158h-37.4L621.2,155.4z"/>
	<polygon class="st1" points="800,200.1 800,231.7 743,231.7 743,198.2 743,198.2 743,105.7 722,105.7 722,73.7 779,73.7 779,200.1 
			"/>
</g>
</svg>
